<?xml version="1.0" ?><!-- Uploaded to: SVG Repo, www.svgrepo.com, Generator: SVG Repo Mixer Tools -->
<svg fill="#000000" width="800px" height="800px" viewBox="0 0 32 32" id="Camada_1" version="1.1" xml:space="preserve" xmlns="http://www.w3.org/2000/svg" xmlns:xlink="http://www.w3.org/1999/xlink"><path d="M30,15.1c0-0.3,0-0.5-0.1-0.7c0-0.3-0.1-0.5-0.1-0.7c0,0,0-0.1,0-0.1c-0.1-0.5-0.2-0.9-0.3-1.4c-0.3-0.9-0.6-1.8-1.1-2.7  c-0.6-1-1.2-2-2-2.8c-0.6-0.6-1.2-1.2-1.9-1.7c-1-0.8-2.2-1.4-3.4-1.9c-0.5-0.2-0.9-0.3-1.4-0.4c-0.1,0-0.3-0.1-0.4-0.1  c-0.3-0.1-0.6-0.1-1-0.2c-0.2,0-0.3,0-0.5-0.1c-0.3,0-0.6-0.1-0.9-0.1c-0.2,0-0.3,0-0.5,0c-0.1,0-0.2,0-0.3,0c-0.3,0-0.7,0-1,0  c-0.9,0.1-1.8,0.2-2.7,0.5c-0.1,0-0.3,0.1-0.4,0.1c-0.1,0-0.1,0-0.2,0C11,2.9,10.4,3.1,9.8,3.4c-0.6,0.3-1.2,0.6-1.7,1  c-0.5,0.3-0.9,0.6-1.3,1C6.4,5.8,6,6.2,5.6,6.6C5.5,6.7,5.4,6.9,5.3,7c-0.9,1-1.5,2.1-2.1,3.3c-0.5,1.2-0.9,2.4-1.1,3.7  c-0.1,0.6-0.1,1.2-0.1,1.8c0,0.4,0,0.8,0,1.1c0.1,1.2,0.3,2.3,0.7,3.4c0.2,0.5,0.4,0.9,0.5,1.4c0,0,0,0.1,0.1,0.2  c1,2.3,2.7,4.1,4.7,5.5c2,1.4,4.3,2.3,6.8,2.5c0.1,0,0.2,0,0.3,0h1.7c0.1,0,0.3,0,0.4,0c0.4,0,0.7-0.1,1.1-0.1  c1.1-0.2,2.1-0.5,3.1-0.9c2.6-1.1,4.6-2.8,6.2-5.1c0,0,0-0.1,0.1-0.1c0-0.1,0.1-0.1,0.1-0.2c0.4-0.6,0.7-1.2,1-1.8  c0.2-0.5,0.4-1.1,0.6-1.7c0.2-0.6,0.3-1.1,0.4-1.7c0-0.3,0.1-0.5,0.1-0.8c0-0.2,0-0.5,0.1-0.7v-1.3v-0.3C30,15.2,30,15.1,30,15.1  L30,15.1z M23.7,5.7c0.6,0.4,1.2,1,1.7,1.5c0.7,0.8,1.3,1.6,1.8,2.6c0.1,0.3,0.3,0.5,0.4,0.8c-0.1,0-0.2-0.1-0.2-0.2  c-0.6-0.4-1-1-1.3-1.5c-0.1-0.2-0.3-0.4-0.4-0.6c-0.3-0.4-0.5-0.8-0.8-1.2C24.4,6.6,24,6.1,23.7,5.7L23.7,5.7L23.7,5.7z M17.1,28.5  c-0.1,0-0.2,0-0.3,0h-1.6c-0.1,0-0.2,0-0.3,0c-4.5-0.4-8.4-3.1-10.4-7.2c0-0.3-0.1-0.6,0-0.8c0-0.7,0.2-1.2,0.6-1.5  c0.2-0.2,0.5-0.3,0.8-0.3c0.1,0,0.1,0,0.2,0c0.4,0,0.8,0.1,1.2,0.3C8.2,19.3,9.1,20,9.9,21c0.3,0.3,0.5,0.6,0.8,1  c0.3,0.3,0.6,0.7,0.9,1.1c0.6,0.7,1.3,1.4,2.2,2.1c1,0.8,2,1.4,3,1.8c1.1,0.5,2.2,0.8,3.4,0.9C19.2,28.2,18.2,28.4,17.1,28.5  L17.1,28.5z M23.3,24.9c-0.5,0.2-1.1,0.3-1.7,0.3c-0.1,0-0.3,0-0.4,0c-1.1,0-2.2-0.2-3.3-0.7c-0.8-0.4-1.6-0.9-2.4-1.5  c-0.7-0.6-1.3-1.1-1.8-1.7c-0.3-0.3-0.6-0.7-0.8-1c-0.3-0.3-0.6-0.7-0.9-1c-1.1-1.3-2.2-2.2-3.4-2.8c-0.8-0.4-1.6-0.6-2.4-0.6  c-0.1,0-0.3,0-0.4,0c-0.9,0.1-1.7,0.4-2.4,1c0-0.1,0-0.2,0-0.2c0-0.2,0-0.5,0-0.7v-0.3c0-0.1,0-0.2,0-0.3c0.2-1.2,0.6-2.1,1.3-2.9  c0.7-0.8,1.5-1.2,2.5-1.3c0.1,0,0.3,0,0.4,0c0.7,0,1.3,0.2,2,0.5c0.8,0.3,1.5,0.9,2.3,1.5c1,0.9,1.9,2,2.8,3.3  c0.5,0.7,1,1.5,1.6,2.3c1.2,1.5,2.5,2.6,3.9,3.3c1.2,0.7,2.5,1.1,3.7,1.2c0.2,0,0.4,0,0.6,0c0.6,0,1.2-0.1,1.8-0.2  C25.4,23.9,24.4,24.5,23.3,24.9L23.3,24.9z M28.5,17.9c-0.2,0.7-0.6,1.2-1.2,1.7c-0.8,0.7-1.7,1-2.8,1c-0.1,0-0.3,0-0.4,0  c-0.9-0.1-1.7-0.3-2.6-0.8c-1.1-0.6-2.1-1.5-3.1-2.7c-0.5-0.6-1-1.4-1.5-2c-1-1.5-2.1-2.7-3.2-3.7c-1-0.9-1.9-1.5-3-2  c-1-0.5-2.1-0.7-3.1-0.7c-0.2,0-0.5,0-0.7,0C6.4,8.7,5.9,8.8,5.4,9c0.3-0.4,0.6-0.8,0.9-1.2l0.1-0.1c0.1-0.1,0.2-0.2,0.4-0.3  c1-0.8,1.9-1.3,2.8-1.5c0.5-0.2,1.1-0.2,1.6-0.2c0.2,0,0.3,0,0.5,0C12.4,5.8,13.2,6,14,6.5c0.9,0.5,1.7,1.2,2.6,2.2  c0.7,0.8,1.3,1.6,1.9,2.6c0.2,0.2,0.3,0.5,0.5,0.7c0.2,0.4,0.5,0.8,0.7,1.1c0.8,1.2,1.6,2.2,2.6,2.9c0.7,0.6,1.5,1.1,2.2,1.4  c0.8,0.3,1.6,0.5,2.3,0.5c0.2,0,0.4,0,0.7,0c0.4,0,0.7-0.1,1.1-0.3C28.6,17.8,28.5,17.8,28.5,17.9L28.5,17.9z M27.1,15.3  c-0.1,0-0.2,0-0.3,0c-0.4,0-0.8-0.1-1.3-0.3c-0.5-0.2-1-0.5-1.5-1c-0.7-0.6-1.4-1.4-2.1-2.4c-0.2-0.3-0.5-0.7-0.7-1.1  c-0.2-0.3-0.3-0.5-0.5-0.8c-0.7-1.1-1.4-2-2.2-2.9c-1-1.2-2.1-2.1-3.2-2.7c-0.5-0.3-1-0.5-1.5-0.7c0.1,0,0.3,0,0.4,0  c0.3,0,0.6,0,0.9,0c0.9,0.1,1.8,0.3,2.6,0.7c1.1,0.5,2.1,1.2,3.1,2.2c0.3,0.3,0.5,0.5,0.7,0.8c0.4,0.5,0.8,0.9,1.2,1.4  c0.3,0.4,0.5,0.7,0.8,1.1c0.1,0.2,0.3,0.4,0.4,0.7c0.4,0.6,1,1.4,1.8,2.1c0.8,0.6,1.6,0.9,2.5,0.9c0.1,0,0.1,0,0.2,0  c0,0.1,0,0.1,0,0.2c0,0.3,0.1,0.6,0.1,0.9v0.1C28.2,15.1,27.7,15.3,27.1,15.3L27.1,15.3z"/></svg>