<!DOCTYPE svg PUBLIC "-//W3C//DTD SVG 1.1//EN" "http://www.w3.org/Graphics/SVG/1.1/DTD/svg11.dtd">
<!-- Uploaded to: SVG Repo, www.svgrepo.com, Transformed by: SVG Repo Mixer Tools -->
<svg width="256px" height="256px" viewBox="0 0 400 400" fill="none" xmlns="http://www.w3.org/2000/svg">
<g id="SVGRepo_bgCarrier" stroke-width="0"/>
<g id="SVGRepo_tracerCarrier" stroke-linecap="round" stroke-linejoin="round"/>
<g id="SVGRepo_iconCarrier"> <path d="M102.125 172.839C54.7551 235.791 48.0015 293.96 48.0015 358.802" stroke="#ffffff" stroke-opacity="0.9" stroke-width="16" stroke-linecap="round" stroke-linejoin="round"/> <path d="M102.127 172.839C112.108 211.439 135.434 277.795 135.434 315.781" stroke="#ffffff" stroke-opacity="0.9" stroke-width="16" stroke-linecap="round" stroke-linejoin="round"/> <path d="M239.518 264.433C213.65 264.433 169.98 298.927 138.209 315.781" stroke="#ffffff" stroke-opacity="0.9" stroke-width="16" stroke-linecap="round" stroke-linejoin="round"/> <path d="M244.768 263.706C249.159 263.939 253.393 265.447 257.646 266.567" stroke="#ffffff" stroke-opacity="0.9" stroke-width="16" stroke-linecap="round" stroke-linejoin="round"/> <path d="M240.901 274.147C244.213 274.487 247.407 276.681 250.615 278.311" stroke="#ffffff" stroke-opacity="0.9" stroke-width="16" stroke-linecap="round" stroke-linejoin="round"/> <path d="M338.919 157.733C340.939 144.264 337.021 134.241 329.704 129.879C320.415 124.341 306.18 126.646 294.174 140.144C234.303 207.45 303.365 267.433 336.284 167.065" stroke="#ffffff" stroke-opacity="0.5" stroke-width="16" stroke-linecap="round" stroke-linejoin="round"/> <path d="M271.896 228.351C256.447 251.963 241.631 280.024 226.1 303.291" stroke="#ffffff" stroke-opacity="0.9" stroke-width="16" stroke-linecap="round" stroke-linejoin="round"/> <path d="M190.709 38.6922C194.837 40.2666 196.907 44.8895 195.333 49.0178C193.759 53.146 189.136 55.2163 185.008 53.6419L190.709 38.6922ZM107.484 121.21L99.7221 123.147V123.147L107.484 121.21ZM203.668 55.5181C199.881 53.2421 198.656 48.3271 200.932 44.5402C203.208 40.7532 208.123 39.5283 211.91 41.8043L203.668 55.5181ZM115.246 119.273C123.042 150.508 138.113 163.3 153.165 166.64C168.914 170.135 187.524 163.989 203.183 151.387C218.792 138.824 229.947 121.027 231.726 103.633C233.429 86.9729 226.697 69.3591 203.668 55.5181L211.91 41.8043C239.737 58.5289 250.036 81.8529 247.643 105.26C245.324 127.933 231.255 149.332 213.214 163.852C195.222 178.332 171.755 187.154 149.699 182.26C126.945 177.211 108.485 158.258 99.7221 123.147L115.246 119.273ZM185.008 53.6419C159.208 43.8026 139.858 50.6989 127.879 63.9823C115.47 77.7426 110.234 99.1929 115.246 119.273L99.7221 123.147C93.5165 98.2833 99.7656 71.2655 115.997 53.2671C132.658 34.7918 159.103 26.6385 190.709 38.6922L185.008 53.6419Z" fill="#ffffff" fill-opacity="0.9"/> <path d="M200.539 121.09C201.081 118.803 201.752 118.543 202.334 116.314" stroke="#ffffff" stroke-opacity="0.9" stroke-width="16" stroke-linecap="round" stroke-linejoin="round"/> </g>
</svg>